<svg width="105" height="96" viewBox="0 0 105 96" fill="none" xmlns="http://www.w3.org/2000/svg">
<path d="M103.555 44.6361L74.5606 52.368C75.3638 57.8245 75.6836 63.434 75.1452 68.2269C74.5953 73.1234 73.1355 77.2932 70.2409 79.5003C67.7602 81.3978 64.6049 82.0757 61.4327 81.8904C57.7676 81.7046 53.9984 80.4104 50.9162 78.6324C44.7638 75.0835 41.3686 69.799 42.0717 64.5228L42.0722 64.519C42.5882 60.8631 45.5793 57.6256 49.9229 54.776C54.1938 51.9741 59.8798 49.4767 66.1513 47.2777C65.5613 44.414 64.8094 41.441 63.9469 38.4098C61.9569 31.6034 59.9133 27.0544 58.2007 24.2032C57.3437 22.7766 56.5761 21.786 55.9483 21.1518C55.6342 20.8346 55.3629 20.6144 55.1405 20.4734C54.9201 20.3335 54.7768 20.29 54.7054 20.2819C53.7277 20.2453 52.5896 20.5867 51.3242 21.2528C50.0586 21.919 48.7056 22.8886 47.3161 24.0508C44.5367 26.3754 41.6653 29.4241 39.1226 32.2238L39.1192 32.2276L38.9538 32.406L38.922 32.4403C35.7727 35.8387 32.7903 39.0569 29.9038 41.0671C26.9964 43.0918 24.0572 43.9765 21.0852 42.4503C19.864 41.8257 18.986 40.5477 18.3589 38.8647C17.7284 37.1729 17.3236 34.9985 17.0984 32.4665C16.6947 27.9278 16.8619 22.1589 17.4023 15.7823L2.79196 40.9313C2.79194 40.9314 2.79192 40.9314 2.7919 40.9314C0.399438 45.0519 0.399406 50.0995 2.7918 54.2201L103.555 44.6361ZM103.555 44.6361L104.426 54.3576L84.8256 88.0655L84.8228 88.0704C82.4925 92.1841 78.0598 94.6823 73.3287 94.6823H33.9687C29.2376 94.6823 24.8049 92.1841 22.4747 88.0704L22.4718 88.0655L2.79196 54.2203L103.555 44.6361ZM57.2331 57.512C59.4238 56.8438 62.3635 56.0775 66.3672 55.0769C66.3793 55.1259 66.3921 55.1785 66.4057 55.2345C66.5046 55.643 66.6405 56.2327 66.7873 56.9538C67.0812 58.3974 67.4179 60.3618 67.5915 62.4523C67.7654 64.5469 67.7736 66.7453 67.4226 68.6653C67.07 70.5939 66.3688 72.1681 65.1883 73.109C62.7748 75.0329 59.2172 74.7998 56.0079 73.0559C52.8488 71.3394 50.1855 68.2325 49.5162 64.635C49.6908 64.1625 49.8386 63.7384 49.9733 63.3521C50.2424 62.5803 50.4589 61.9592 50.7309 61.4039C51.127 60.5954 51.6215 59.9802 52.5575 59.3917C53.5183 58.7876 54.9491 58.2086 57.2331 57.512ZM102.726 38.1623L72.8182 44.9156C72.4835 43.9404 72.266 42.8575 71.9987 41.5265C71.8792 40.9316 71.7498 40.2871 71.5955 39.5806C71.0555 37.1076 70.2273 33.984 68.4681 29.8233C66.8358 24.9304 65.0362 21.1948 63.0581 18.5228C61.0753 15.8444 58.8939 14.2101 56.5026 13.5791C51.7215 12.3174 46.4125 15.1309 40.6544 20.6387C34.9005 26.1424 30.7715 30.2714 28.0799 33.0255C26.7341 34.4026 25.7477 35.436 25.0972 36.1257C24.9597 36.2715 24.8372 36.4019 24.7295 36.517C24.137 34.2924 23.8268 31.2103 23.9273 26.5245C24.0402 21.2544 24.6711 13.9903 25.9799 3.6898C27.4283 1.72372 29.583 0.789191 34.0162 0.5H57H73.4644C76.9166 0.995648 79.0145 1.66401 80.6386 2.75221C82.2691 3.84458 83.4711 5.39089 85.0762 7.76581L102.726 38.1623Z" stroke="black"/>
</svg>
